<?xml version="1.0" encoding="utf-8"?>
<!-- Generator: Adobe Illustrator 24.3.0, SVG Export Plug-In . SVG Version: 6.00 Build 0)  -->
<svg version="1.1" id="Layer_1" xmlns="http://www.w3.org/2000/svg" xmlns:xlink="http://www.w3.org/1999/xlink" x="0px" y="0px"
	 viewBox="0 0 20 20" style="enable-background:new 0 0 20 20;" xml:space="preserve">
<style type="text/css">
	.st0{fill:#FB4352;}
</style>
<g>
	<rect x="5.06" y="16.36" class="st0" width="2.33" height="1.16"/>
	<path class="st0" d="M12.05,4.73V2.14c0-1.14-0.93-2.06-2.07-2.06H2.47C1.33,0.08,0.41,1,0.41,2.14v15.65
		c0,1.14,0.92,2.06,2.06,2.06h7.51c1.14,0,2.06-0.92,2.06-2.06V15.2h7.37l0-10.47H12.05z M2.92,10.45l0.82-0.82l1.65,1.65L9.5,7.16
		l0.82,0.82l-4.94,4.94L2.92,10.45z M17.09,12.87h-5.24v-1.16h5.24V12.87z M15.35,9.38v1.16h-3.49V9.38H15.35z M11.85,8.22V7.06
		h2.33v1.16H11.85z M8.34,1.24L7.64,2.4H4.81l-0.7-1.16L8.34,1.24z M1.57,2.14c0-0.5,0.4-0.9,0.9-0.9h0.28l1.39,2.33h4.16l1.4-2.33
		h0.28c0.5,0,0.9,0.4,0.9,0.9v2.59H1.57L1.57,2.14z M10.88,17.79c0,0.5-0.4,0.9-0.9,0.9H2.47c-0.5,0-0.9-0.4-0.9-0.9V15.2h9.31
		V17.79z"/>
</g>
</svg>
