<?xml version="1.0" encoding="utf-8"?>
<!-- Generator: Adobe Illustrator 24.3.0, SVG Export Plug-In . SVG Version: 6.00 Build 0)  -->
<svg version="1.1" id="Layer_1" xmlns="http://www.w3.org/2000/svg" xmlns:xlink="http://www.w3.org/1999/xlink" x="0px" y="0px"
	 viewBox="0 0 20 20" style="enable-background:new 0 0 20 20;" xml:space="preserve">
<style type="text/css">
	.st0{fill:#8853BE;}
</style>
<g>
	<path class="st0" d="M17.78,0.13H2.21c-1.07,0-1.95,0.88-1.95,1.95v15.58c0,1.07,0.88,1.95,1.95,1.95h15.58
		c1.07,0,1.95-0.88,1.95-1.95V2.08C19.73,1.01,18.85,0.13,17.78,0.13z M5.51,17.26H2.53v-2.65h2.98
		C5.51,14.61,5.51,17.26,5.51,17.26z M5.51,13.72H2.53v-2.65h2.98C5.51,11.07,5.51,13.72,5.51,13.72z M5.29,3.08
		c-0.46,0-0.83-0.37-0.83-0.83s0.37-0.83,0.83-0.83S6.12,1.8,6.12,2.25S5.75,3.08,5.29,3.08z M9.5,17.26H6.51v-2.65H9.5V17.26z
		 M9.5,13.72H6.51v-2.65H9.5V13.72z M9.5,10.18H6.51V7.53H9.5V10.18z M9.17,2.25c0-0.46,0.37-0.83,0.83-0.83s0.83,0.37,0.83,0.83
		S10.45,3.08,10,3.08S9.17,2.71,9.17,2.25z M13.48,13.72H10.5v-2.65h2.98L13.48,13.72L13.48,13.72z M13.48,10.18H10.5V7.53h2.98
		L13.48,10.18L13.48,10.18z M13.87,2.25c0-0.46,0.37-0.83,0.83-0.83s0.83,0.37,0.83,0.83s-0.37,0.83-0.83,0.83
		C14.24,3.08,13.87,2.71,13.87,2.25z M17.46,13.72h-2.98v-2.65h2.98V13.72z M17.46,10.18h-2.98V7.53h2.98V10.18z"/>
</g>
</svg>
