<?xml version="1.0" encoding="utf-8"?>
<!-- Generator: Adobe Illustrator 24.3.0, SVG Export Plug-In . SVG Version: 6.00 Build 0)  -->
<svg version="1.1" id="Layer_1" xmlns="http://www.w3.org/2000/svg" xmlns:xlink="http://www.w3.org/1999/xlink" x="0px" y="0px"
	 viewBox="0 0 20 20" style="enable-background:new 0 0 20 20;" xml:space="preserve">
<style type="text/css">
	.st0{fill:#FCA936;}
</style>
<g>
	<path class="st0" d="M8.13,12.06c0.17,0,0.33-0.15,0.33-0.66c0-0.51-0.17-0.66-0.33-0.66c-0.17,0-0.33,0.15-0.33,0.66h0
		C7.8,11.91,7.96,12.06,8.13,12.06z"/>
	<path class="st0" d="M12.03,13.25c-0.17,0-0.33,0.15-0.33,0.66c0,0.51,0.17,0.66,0.33,0.66v0c0.17,0,0.33-0.15,0.33-0.66
		C12.37,13.41,12.2,13.25,12.03,13.25z"/>
	<path class="st0" d="M15.87,7.17c-1.26-1.37-2.34-2.89-3.21-4.52c-0.32-0.59-0.58-1.2-0.78-1.83l-0.17-0.66l-0.62,0.28
		c-1.19,0.6-2.16,1.56-2.76,2.74C7.92,4.05,7.73,5,7.75,5.96c0,0.49-0.4,0.9-0.89,0.9c-0.24,0-0.47-0.09-0.64-0.26L5.06,5.43
		l-0.4,0.55c-0.04,0.06-1.02,1.4-1.19,1.67c-2.41,3.65-1.4,8.56,2.25,10.97c3.65,2.41,8.56,1.4,10.97-2.25
		c0.85-1.29,1.31-2.81,1.31-4.36C17.9,10.19,17.14,8.47,15.87,7.17z M13.45,13.98c-0.04,0.82-0.73,1.45-1.55,1.41
		c-0.82-0.04-1.45-0.73-1.41-1.55c0.04-0.82,0.73-1.45,1.55-1.41c0.06,0,0.12,0,0.17,0c0.75,0.07,1.31,0.73,1.24,1.48
		C13.45,13.93,13.45,13.96,13.45,13.98z M8.06,10.05c0.78-0.04,1.44,0.57,1.48,1.35c0.01,0.06,0.01,0.12,0,0.17
		c-0.03,0.75-0.67,1.34-1.42,1.31c-0.76,0-1.38-0.59-1.42-1.35C6.68,10.75,7.28,10.09,8.06,10.05z M7.62,15.32l3.64-5.33h1.29
		l-3.64,5.33H7.62z"/>
</g>
</svg>
