<?xml version="1.0" encoding="utf-8"?>
<!-- Generator: Adobe Illustrator 24.3.0, SVG Export Plug-In . SVG Version: 6.00 Build 0)  -->
<svg version="1.1" id="Layer_1" xmlns="http://www.w3.org/2000/svg" xmlns:xlink="http://www.w3.org/1999/xlink" x="0px" y="0px"
	 viewBox="0 0 20 20" style="enable-background:new 0 0 20 20;" xml:space="preserve">
<style type="text/css">
	.st0{fill:#FD7619;}
</style>
<g>
	<path class="st0" d="M10.6,1.34c-0.68-0.68-1.78-0.68-2.45,0c-0.59,0.59-0.68,1.51-0.21,2.2L7.92,3.59C7.45,5.94,6.3,8.1,4.6,9.8
		l-3,3c-0.68,0.68-0.68,1.78,0,2.45c0,0,0,0,0,0l1.64,1.64c0.68,0.68,1.78,0.68,2.45,0c0,0,0,0,0,0l0.41-0.41l2.86,2.86
		c0.68,0.68,1.78,0.68,2.45,0c0.68-0.68,0.68-1.78,0-2.45l-1.23-1.23l0.41-0.41c0.68-0.68,0.68-1.78,0-2.45c0,0,0,0,0,0l-0.28-0.28
		c1.37-0.96,2.93-1.63,4.58-1.96l0.05-0.01c0.69,0.46,1.61,0.38,2.2-0.21c0.67-0.68,0.67-1.77,0-2.45L10.6,1.34z M4.87,16.07
		c-0.22,0.23-0.59,0.23-0.81,0c0,0,0,0,0,0l-1.64-1.64c-0.23-0.22-0.23-0.59,0-0.81c0,0,0,0,0,0l2.86-2.86l2.45,2.45L4.87,16.07z"/>
	<path class="st0" d="M13.26,2.41c0.32,0,0.58-0.26,0.58-0.58V0.68c0-0.32-0.26-0.58-0.58-0.58c0,0,0,0-0.01,0
		c-0.32,0-0.58,0.26-0.58,0.58v1.16C12.68,2.15,12.94,2.41,13.26,2.41z"/>
	<path class="st0" d="M17.88,4.73h-1.16c-0.32,0-0.58,0.26-0.58,0.58c0,0.32,0.26,0.58,0.58,0.58h1.16c0.32,0,0.58-0.26,0.58-0.58
		C18.46,4.99,18.2,4.73,17.88,4.73z"/>
	<path class="st0" d="M15.98,3.4l1.16-1.16c0.23-0.22,0.23-0.59,0-0.81c0,0,0,0,0,0c-0.22-0.23-0.59-0.23-0.81,0c0,0,0,0,0,0
		l-1.16,1.16c-0.23,0.23-0.23,0.59,0,0.82C15.38,3.63,15.75,3.63,15.98,3.4z"/>
</g>
</svg>
