<?xml version="1.0" encoding="utf-8"?>
<!-- Generator: Adobe Illustrator 24.3.0, SVG Export Plug-In . SVG Version: 6.00 Build 0)  -->
<svg version="1.1" id="Layer_1" xmlns="http://www.w3.org/2000/svg" xmlns:xlink="http://www.w3.org/1999/xlink" x="0px" y="0px"
	 viewBox="0 0 20 20" style="enable-background:new 0 0 20 20;" xml:space="preserve">
<style type="text/css">
	.st0{fill:#9BC91F;}
</style>
<path class="st0" d="M17.2,0.51h-5.49c-0.62,0-1.21,0.24-1.65,0.68L1.58,9.68c-0.91,0.91-0.91,2.38,0,3.29l5.49,5.49
	c0.91,0.91,2.38,0.91,3.29,0l8.48-8.48c0.44-0.44,0.68-1.03,0.68-1.65V2.84C19.52,1.56,18.48,0.52,17.2,0.51z M7.1,12.78
	c-0.29,0-0.56-0.16-0.69-0.42c-0.2-0.38-0.05-0.85,0.33-1.05l3.9-2.02c0.38-0.2,0.85-0.05,1.05,0.33c0.2,0.38,0.05,0.85-0.33,1.05
	l-3.9,2.02C7.35,12.75,7.22,12.78,7.1,12.78z M9.02,8.54c-0.13,0.41-0.57,0.63-0.97,0.5L7.67,8.92c-0.41-0.13-0.63-0.57-0.5-0.98
	c0.13-0.41,0.57-0.63,0.97-0.5l0.37,0.12C8.92,7.69,9.15,8.13,9.02,8.54z M15.03,6.31L15.03,6.31c-0.31,0.3-0.8,0.3-1.1,0
	c-0.01-0.01-0.01-0.01-0.02-0.02l-0.2-0.21c-0.29-0.31-0.28-0.8,0.03-1.1c0.14-0.14,0.33-0.21,0.53-0.21h0.01
	c0.21,0,0.41,0.09,0.55,0.24l0.2,0.21C15.33,5.53,15.33,6.01,15.03,6.31z M9.09,13.45c0.12-0.41,0.56-0.64,0.97-0.52l0.37,0.12
	c0.32,0.1,0.54,0.4,0.54,0.74c0,0.43-0.35,0.78-0.78,0.77c-0.08,0-0.16-0.01-0.24-0.04l-0.37-0.12C9.19,14.28,8.97,13.85,9.09,13.45
	z"/>
</svg>
