<?xml version="1.0" encoding="utf-8"?>
<!-- Generator: Adobe Illustrator 24.3.0, SVG Export Plug-In . SVG Version: 6.00 Build 0)  -->
<svg version="1.1" id="Layer_1" xmlns="http://www.w3.org/2000/svg" xmlns:xlink="http://www.w3.org/1999/xlink" x="0px" y="0px"
	 viewBox="0 0 40 40" style="enable-background:new 0 0 40 40;" xml:space="preserve">
<style type="text/css">
	.st0{fill:#6646CD;}
	.st1{fill:#FFFFFF;}
</style>
<g>
	<circle class="st0" cx="20" cy="20" r="20"/>
	<g>
		<g>
			<path class="st1" d="M30.2,11.4c0.2-0.2,0.4-0.6,0.4-0.9c0-0.4-0.1-0.7-0.4-0.9c-0.2-0.2-0.6-0.4-0.9-0.4s-0.7,0.1-0.9,0.4
				l-0.9,0.9c-2.9-2-6.8-1.6-9.3,0.9L8.4,21c-0.5,0.5-0.5,1.4,0,1.9l8.5,8.5c0.3,0.3,0.6,0.4,0.9,0.4c0.3,0,0.7-0.1,0.9-0.4l9.7-9.7
				c2.5-2.5,2.8-6.4,0.9-9.3L30.2,11.4z M28.9,10.2c0.1-0.1,0.2-0.1,0.3-0.1s0.2,0,0.3,0.1c0.1,0.1,0.1,0.2,0.1,0.3s0,0.2-0.1,0.3
				l-3,3c-0.2,0.2-0.5,0.2-0.6,0c-0.2-0.2-0.2-0.5,0-0.6L28.9,10.2z M18.1,30.8c-0.2,0.2-0.5,0.2-0.6,0L9,22.3
				c-0.2-0.2-0.2-0.5,0-0.6l6.8-6.8l0.5,0.5c0.1,0.1,0.2,0.1,0.3,0.1s0.2,0,0.3-0.1c0.2-0.2,0.2-0.5,0-0.6l-0.5-0.5l0.6-0.6l9.1,9.1
				l-0.6,0.6L25,22.9c-0.2-0.2-0.5-0.2-0.6,0c-0.2,0.2-0.2,0.5,0,0.6l0.5,0.5L18.1,30.8z M27.8,21.1l-1.1,1.1L17.6,13l1.1-1.1
				c2.2-2.2,5.5-2.5,8.1-0.8L26,11.9c-1.1-0.4-2.4-0.1-3.2,0.7c-0.6,0.6-0.9,1.4-0.9,2.2c0,0.2,0.2,0.4,0.4,0.4c0,0,0,0,0,0
				c0.2,0,0.4-0.2,0.4-0.4c0-0.6,0.2-1.2,0.6-1.6c0.5-0.5,1.2-0.7,1.9-0.6c-0.5,0.5-0.5,1.4,0,1.9c0.3,0.3,0.6,0.4,0.9,0.4
				c0.3,0,0.7-0.1,0.9-0.4c0.1,0.7-0.1,1.4-0.6,1.9c-0.4,0.4-1,0.7-1.6,0.6c0,0,0,0,0,0c-0.2,0-0.4,0.2-0.4,0.4
				c0,0.2,0.2,0.4,0.4,0.4c0,0,0,0,0.1,0c0.8,0,1.6-0.3,2.2-0.9c0.8-0.8,1.1-2.1,0.7-3.2l0.7-0.7C30.3,15.5,30,18.9,27.8,21.1
				L27.8,21.1z"/>
			<path class="st1" d="M18.4,17.5c0.1,0.1,0.2,0.1,0.3,0.1s0.2,0,0.3-0.1c0.2-0.2,0.2-0.5,0-0.6l-0.5-0.5c-0.2-0.2-0.5-0.2-0.6,0
				c-0.2,0.2-0.2,0.5,0,0.6L18.4,17.5z"/>
			<path class="st1" d="M20.7,18.5c-0.2-0.2-0.5-0.2-0.6,0c-0.2,0.2-0.2,0.5,0,0.6l0.5,0.5c0.1,0.1,0.2,0.1,0.3,0.1s0.2,0,0.3-0.1
				c0.2-0.2,0.2-0.5,0-0.6L20.7,18.5z"/>
			<path class="st1" d="M22.9,20.7c-0.2-0.2-0.5-0.2-0.6,0c-0.2,0.2-0.2,0.5,0,0.6l0.5,0.5C22.9,22,23,22,23.1,22
				c0.1,0,0.2,0,0.3-0.1c0.2-0.2,0.2-0.5,0-0.6L22.9,20.7z"/>
			<path class="st1" d="M16.8,21.8c0.3,0,0.7-0.1,0.9-0.4c0.3-0.3,0.4-0.6,0.4-0.9c0-0.4-0.1-0.7-0.4-0.9c-0.5-0.5-1.4-0.5-1.9,0
				c-0.3,0.3-0.4,0.6-0.4,0.9c0,0.4,0.1,0.7,0.4,0.9C16.1,21.7,16.4,21.8,16.8,21.8z M16.5,20.2c0.1-0.1,0.2-0.1,0.3-0.1
				s0.2,0,0.3,0.1c0.1,0.1,0.1,0.2,0.1,0.3s0,0.2-0.1,0.3c-0.2,0.2-0.5,0.2-0.6,0c-0.1-0.1-0.1-0.2-0.1-0.3
				C16.3,20.4,16.4,20.3,16.5,20.2L16.5,20.2z"/>
			<path class="st1" d="M15.8,24.5c-0.5,0.5-0.5,1.4,0,1.9c0.3,0.3,0.6,0.4,0.9,0.4c0.3,0,0.7-0.1,0.9-0.4c0.5-0.5,0.5-1.4,0-1.9
				C17.2,24,16.4,24,15.8,24.5z M17.1,25.8c-0.2,0.2-0.5,0.2-0.6,0c-0.2-0.2-0.2-0.5,0-0.6c0.1-0.1,0.2-0.1,0.3-0.1s0.2,0,0.3,0.1
				C17.3,25.3,17.3,25.6,17.1,25.8z"/>
			<path class="st1" d="M19.6,21.8l-5.9,1.6c-0.2,0.1-0.4,0.3-0.3,0.5c0.1,0.2,0.2,0.3,0.4,0.3c0,0,0.1,0,0.1,0l5.9-1.6
				c0.2-0.1,0.4-0.3,0.3-0.5C20.1,21.8,19.8,21.7,19.6,21.8L19.6,21.8z"/>
			<path class="st1" d="M23.1,16.2L23.1,16.2c-0.2,0-0.4,0.2-0.4,0.4c0,0.2,0.2,0.4,0.4,0.4s0.4-0.2,0.4-0.4
				C23.6,16.4,23.4,16.2,23.1,16.2z"/>
		</g>
	</g>
</g>
</svg>
