<?xml version="1.0" standalone="no"?>
<!DOCTYPE svg PUBLIC "-//W3C//DTD SVG 20010904//EN"
 "http://www.w3.org/TR/2001/REC-SVG-20010904/DTD/svg10.dtd">
<svg version="1.0" xmlns="http://www.w3.org/2000/svg"
 width="80.000000pt" height="80.000000pt" viewBox="0 0 80.000000 80.000000"
 preserveAspectRatio="xMidYMid meet">

<g transform="translate(0.000000,80.000000) scale(0.100000,-0.100000)"
fill="#000000" stroke="none">
<path d="M260 270 c0 -6 7 -10 15 -10 8 0 15 2 15 4 0 2 -7 6 -15 10 -8 3 -15
1 -15 -4z"/>
<path d="M44 223 c1 -19 7 -28 19 -29 14 -2 14 -1 1 3 -11 3 -14 12 -10 29 4
13 2 24 -2 24 -5 0 -9 -12 -8 -27z"/>
<path d="M100 246 c0 -2 9 -6 20 -9 11 -3 18 -1 14 4 -5 9 -34 13 -34 5z"/>
<path d="M180 243 c12 -6 13 -43 1 -43 -5 0 -12 5 -14 10 -3 6 -4 5 -3 -2 2
-7 9 -13 17 -13 18 0 19 47 1 51 -7 1 -8 0 -2 -3z"/>
<path d="M244 223 c1 -19 7 -28 19 -29 14 -2 14 -1 1 3 -11 3 -14 12 -10 29 4
13 2 24 -2 24 -5 0 -9 -12 -8 -27z"/>
<path d="M302 220 c0 -19 2 -27 5 -17 2 9 2 25 0 35 -3 9 -5 1 -5 -18z"/>
<path d="M320 220 c0 -16 4 -30 8 -30 5 0 7 14 4 30 -2 17 -6 30 -8 30 -2 0
-4 -13 -4 -30z"/>
<path d="M368 243 c7 -3 16 -2 19 1 4 3 -2 6 -13 5 -11 0 -14 -3 -6 -6z"/>
<path d="M445 240 c3 -5 8 -10 11 -10 2 0 4 5 4 10 0 6 -5 10 -11 10 -5 0 -7
-4 -4 -10z"/>
<path d="M481 228 c-1 -16 -8 -28 -18 -31 -17 -4 -17 -5 0 -6 20 -1 31 19 24
46 -3 12 -5 9 -6 -9z"/>
<path d="M500 246 c0 -2 9 -6 20 -9 11 -3 18 -1 14 4 -5 9 -34 13 -34 5z"/>
<path d="M585 240 c3 -5 8 -10 11 -10 2 0 4 5 4 10 0 6 -5 10 -11 10 -5 0 -7
-4 -4 -10z"/>
<path d="M664 242 c19 -8 19 -9 -3 -15 -23 -6 -25 -29 -3 -33 7 -1 8 0 2 3
-15 7 -12 23 4 23 8 0 17 -8 20 -17 2 -10 4 -5 3 12 -2 22 -8 31 -22 32 -19 3
-19 3 -1 -5z"/>
<path d="M740 226 c0 -15 -7 -26 -17 -29 -14 -4 -12 -5 5 -6 18 -1 22 4 22 29
0 17 -2 30 -5 30 -3 0 -5 -11 -5 -24z"/>
<path d="M210 216 c0 -8 4 -17 9 -20 5 -4 7 3 4 14 -6 23 -13 26 -13 6z"/>
<path d="M355 220 c-8 -13 3 -30 18 -29 9 0 9 2 0 6 -18 7 -16 23 1 23 8 0 17
-8 19 -17 4 -14 5 -12 6 5 1 16 -5 22 -18 22 -11 0 -23 -4 -26 -10z"/>
<path d="M100 205 c0 -17 25 -20 35 -5 4 6 -1 7 -11 3 -12 -4 -15 -3 -10 5 4
7 2 12 -3 12 -6 0 -11 -7 -11 -15z"/>
<path d="M500 205 c0 -17 25 -20 35 -5 4 6 -1 7 -11 3 -12 -4 -15 -3 -10 5 4
7 2 12 -3 12 -6 0 -11 -7 -11 -15z"/>
<path d="M582 204 c-7 -8 -8 -14 -3 -14 10 0 25 19 20 25 -2 1 -10 -3 -17 -11z"/>
<path d="M438 163 c7 -3 16 -2 19 1 4 3 -2 6 -13 5 -11 0 -14 -3 -6 -6z"/>
<path d="M588 163 c7 -3 16 -2 19 1 4 3 -2 6 -13 5 -11 0 -14 -3 -6 -6z"/>
<path d="M145 150 c-3 -5 -3 -10 2 -11 4 0 -1 -4 -12 -9 l-20 -9 20 -1 c18 -1
18 -2 -3 -11 -24 -9 -26 -31 -4 -35 7 -1 8 0 2 3 -15 7 -12 23 4 23 8 0 17 -8
19 -17 3 -10 5 3 4 30 -1 49 -2 53 -12 37z"/>
<path d="M298 143 c7 -3 16 -2 19 1 4 3 -2 6 -13 5 -11 0 -14 -3 -6 -6z"/>
<path d="M438 143 c7 -3 16 -2 19 1 4 3 -2 6 -13 5 -11 0 -14 -3 -6 -6z"/>
<path d="M588 143 c7 -3 16 -2 19 1 4 3 -2 6 -13 5 -11 0 -14 -3 -6 -6z"/>
<path d="M176 122 c7 -4 14 -18 17 -32 4 -21 4 -20 6 8 1 24 -3 32 -16 32 -12
0 -14 -3 -7 -8z"/>
<path d="M275 121 c-3 -5 0 -13 6 -17 7 -4 9 -3 5 4 -3 6 2 13 11 15 16 4 16
5 1 6 -9 0 -19 -3 -23 -8z"/>
<path d="M426 121 c-4 -5 3 -7 14 -4 23 6 26 13 6 13 -8 0 -17 -4 -20 -9z"/>
<path d="M489 128 c0 -2 -2 -16 -4 -33 -3 -23 -2 -26 4 -10 5 11 7 23 4 28 -2
4 3 7 11 7 8 0 17 -11 19 -25 4 -23 4 -23 3 2 -1 18 -7 29 -18 31 -10 2 -18 2
-19 0z"/>
<path d="M540 100 c0 -16 4 -30 8 -30 5 0 7 13 4 30 -2 17 -6 30 -8 30 -2 0
-4 -13 -4 -30z"/>
<path d="M594 122 c19 -8 19 -9 -3 -15 -23 -6 -25 -29 -3 -33 7 -1 8 0 2 3
-15 7 -12 23 4 23 8 0 17 -8 20 -17 2 -10 4 -5 3 12 -2 22 -8 31 -22 32 -19 3
-19 3 -1 -5z"/>
<path d="M639 128 c0 -2 -2 -16 -4 -33 -3 -23 -2 -26 4 -10 5 11 7 23 4 28 -2
4 3 7 11 7 8 0 17 -11 19 -25 4 -23 4 -23 3 2 -1 18 -7 29 -18 31 -10 2 -18 2
-19 0z"/>
<path d="M235 110 c-16 -7 -17 -9 -3 -9 9 -1 19 -9 21 -18 3 -11 5 -7 6 10 0
15 0 27 -1 26 -2 0 -12 -4 -23 -9z"/>
<path d="M462 90 c0 -14 2 -19 5 -12 2 6 2 18 0 25 -3 6 -5 1 -5 -13z"/>
<path d="M330 79 c0 -5 9 -9 20 -9 11 0 20 2 20 4 0 2 -9 6 -20 9 -11 3 -20 1
-20 -4z"/>
<path d="M420 80 c0 -5 5 -10 11 -10 5 0 7 5 4 10 -3 6 -8 10 -11 10 -2 0 -4
-4 -4 -10z"/>
<path d="M278 73 c6 -2 18 -2 25 0 6 3 1 5 -13 5 -14 0 -19 -2 -12 -5z"/>
</g>
</svg>
