<?xml version="1.0" encoding="utf-8"?>
<!-- Generator: Adobe Illustrator 24.3.0, SVG Export Plug-In . SVG Version: 6.00 Build 0)  -->
<svg version="1.1" id="Layer_1" xmlns="http://www.w3.org/2000/svg" xmlns:xlink="http://www.w3.org/1999/xlink" x="0px" y="0px"
	 viewBox="0 0 40 40" style="enable-background:new 0 0 40 40;" xml:space="preserve">
<style type="text/css">
	.st0{fill:#9BC91F;}
	.st1{fill:#FFFFFF;}
</style>
<g>
	<circle class="st0" cx="20" cy="20" r="20"/>
	<g>
		<path class="st1" d="M16.6,19c1.8,0,3.2-1.2,3.2-2.6c0-0.2-0.2-0.4-0.4-0.4c-0.2,0-0.4,0.2-0.4,0.4c0,0.9-0.9,1.7-2,1.8v-1.3
			c0,0,0.1,0,0.1-0.1l0.7-0.5l0,0c0.3-0.2,0.4-0.5,0.4-0.8c0-0.5-0.4-1-0.9-1h-1.4c-0.5,0-0.9,0.4-0.9,1c0,0.3,0.1,0.6,0.4,0.8
			l0.7,0.5c0,0,0.1,0.1,0.1,0.1v1.3c-1.1-0.1-2-0.9-2-1.8c0-0.2-0.2-0.4-0.4-0.4s-0.4,0.2-0.4,0.4C13.3,17.8,14.8,19,16.6,19z
			 M15.8,15.6c0,0-0.1-0.1-0.1-0.1c0-0.1,0.1-0.2,0.1-0.2h1.4c0.1,0,0.1,0.1,0.1,0.2c0,0.1,0,0.1-0.1,0.1l-0.7,0.5c0,0-0.1,0-0.1,0
			L15.8,15.6z"/>
		<circle class="st1" cx="19" cy="14.1" r="0.4"/>
		<circle class="st1" cx="14.1" cy="14.1" r="0.4"/>
		<path class="st1" d="M27.1,22.6c0.9,0,1.6-0.7,1.6-1.6c0-0.9-0.7-1.6-1.6-1.6c-0.9,0-1.6,0.7-1.6,1.6
			C25.5,21.9,26.2,22.6,27.1,22.6z M27.1,20.2c0.4,0,0.8,0.4,0.8,0.8c0,0.4-0.4,0.8-0.8,0.8s-0.8-0.4-0.8-0.8
			C26.3,20.6,26.7,20.2,27.1,20.2z"/>
		<path class="st1" d="M32.8,23.4h-2.4v-5.3c0-0.1,0-0.2-0.1-0.2l0,0l-2.8-4.1c-0.1-0.2-0.4-0.2-0.6-0.1c0,0-0.1,0.1-0.1,0.1
			l-2.8,4.1l0,0c0,0.1-0.1,0.1-0.1,0.2v2.5c-0.6-0.7-1.3-1.4-2.2-1.8c0.9-1.1,1.4-2.4,1.4-3.9c0-0.7-0.1-1.3-0.3-1.9
			c1.4-0.7,1.9-2.4,1.2-3.8c-0.7-1.4-2.4-1.9-3.8-1.2c-0.5,0.3-0.9,0.7-1.2,1.2c-0.8-0.2-1.5-0.3-2.3-0.3c-0.8,0-1.6,0.1-2.3,0.3
			c-0.7-1.4-2.4-2-3.8-1.3s-2,2.4-1.3,3.8c0.3,0.5,0.7,1,1.2,1.2c-0.2,0.6-0.3,1.3-0.3,1.9c0,1.5,0.5,2.9,1.4,3.9
			c-2,1-3.1,2.7-3.4,4.9c0,0,0,0,0,0l0,0.6c0,0,0,0,0,0.1c0.1,1,0.7,1.8,1.6,2.1c-0.3,0.5-0.4,1.1-0.4,1.8c0,2,1.5,3.6,3.2,3.6
			c1,0,1.8-0.5,2.4-1.2c1,0.6,2.2,0.6,3.3,0c0.6,0.8,1.5,1.2,2.4,1.2c1.3,0,2.4-0.8,2.9-2h9.3c0.2,0,0.4-0.2,0.4-0.4v-5.7
			C33.2,23.6,33,23.4,32.8,23.4z M27.1,14.8l2.1,2.9H25L27.1,14.8z M24.7,18.6h4.9v4.9H25c-0.1-0.4-0.2-0.8-0.3-1.2V18.6z
			 M23.5,26.5c0.4-0.1,0.7-0.4,1-0.7h0.6v1.6h-1.3C23.7,27.2,23.6,26.8,23.5,26.5z M24.2,23.9l0,0.5c-0.1,0.7-0.6,1.3-1.3,1.4
			c-0.5-0.6-1.2-1-2-1.1c-0.1-1.6-0.6-3.2-1.5-4.2c0.6-0.2,1.1-0.6,1.6-1C22.9,20.4,24,21.9,24.2,23.9L24.2,23.9z M21.4,8.4
			c1.1,0,2,0.9,2,2c0,0.7-0.4,1.4-1,1.7c-0.3-0.6-0.7-1.1-1.1-1.6c-0.5-0.5-1-0.9-1.7-1.1C20,8.8,20.7,8.4,21.4,8.4z M9.7,10.5
			c0-1.1,0.9-2,2-2c0.7,0,1.4,0.4,1.8,1c-0.6,0.3-1.2,0.7-1.7,1.1c-0.5,0.5-0.9,1-1.1,1.6C10.1,11.9,9.7,11.2,9.7,10.5z M12.4,11.2
			c1-1,2.5-1.5,4.2-1.5s3.2,0.5,4.2,1.5c1,0.9,1.5,2.3,1.5,3.7s-0.5,2.8-1.5,3.7c-1,1-2.5,1.5-4.2,1.5s-3.2-0.5-4.2-1.5
			c-1-0.9-1.5-2.3-1.5-3.7S11.4,12.2,12.4,11.2z M8.9,24.4l0-0.5c0.2-2,1.3-3.5,3.2-4.4c0.5,0.4,1,0.7,1.6,1
			c-0.9,1.1-1.5,2.6-1.5,4.2c-0.8,0.1-1.5,0.5-2,1.1C9.4,25.7,8.9,25.1,8.9,24.4z M12.5,31.1c-1.3,0-2.4-1.3-2.4-2.8
			s1.1-2.8,2.4-2.8s2.4,1.3,2.4,2.8S13.9,31.1,12.5,31.1z M16.6,30.3c-0.4,0-0.8-0.1-1.2-0.3c0.3-0.5,0.4-1.1,0.4-1.7
			c0-1.9-1.2-3.4-2.8-3.6c0.1-1.6,0.6-3,1.6-3.9c0.7,0.2,1.4,0.3,2.1,0.3c0.7,0,1.4-0.1,2.1-0.3c0.9,0.9,1.5,2.4,1.6,3.9
			c-1.6,0.2-2.8,1.8-2.8,3.6c0,0.6,0.1,1.2,0.4,1.7C17.4,30.2,17,30.3,16.6,30.3z M20.6,31.1c-1.3,0-2.4-1.3-2.4-2.8
			s1.1-2.8,2.4-2.8c1.3,0,2.4,1.3,2.4,2.8S22,31.1,20.6,31.1z M23.9,28.3h1.6c0.2,0,0.4-0.2,0.4-0.4v-2.4c0-0.2-0.2-0.4-0.4-0.4
			h-0.5c0.1-0.2,0.1-0.4,0.1-0.6c0,0,0,0,0-0.1l0-0.1h1.6v4.9h-2.9C23.8,28.8,23.9,28.6,23.9,28.3z M32.4,29.1h-4.9v-4.9h4.9V29.1z"
			/>
		<path class="st1" d="M28.7,28.3h2.4c0.2,0,0.4-0.2,0.4-0.4c0-0.1,0-0.1,0-0.2l-1.2-2.4c-0.1-0.2-0.3-0.3-0.5-0.2
			c-0.1,0-0.1,0.1-0.2,0.2l-1.2,2.4c-0.1,0.2,0,0.4,0.2,0.5C28.6,28.3,28.7,28.3,28.7,28.3z M29.9,26.4l0.6,1.1h-1.1L29.9,26.4z"/>
	</g>
</g>
</svg>
