<?xml version="1.0" encoding="utf-8"?>
<!-- Generator: Adobe Illustrator 24.3.0, SVG Export Plug-In . SVG Version: 6.00 Build 0)  -->
<svg version="1.1" id="Layer_1" xmlns="http://www.w3.org/2000/svg" xmlns:xlink="http://www.w3.org/1999/xlink" x="0px" y="0px"
	 viewBox="0 0 40 40" style="enable-background:new 0 0 40 40;" xml:space="preserve">
<style type="text/css">
	.st0{fill:#FD7619;}
	.st1{fill:#FFFFFF;}
</style>
<circle class="st0" cx="20" cy="20" r="20"/>
<g>
	<g>
		<g>
			<path class="st1" d="M30.4,19.6l0-2.4c0-0.1-0.1-0.3-0.2-0.3c-0.1,0-0.3-0.3-0.8-0.6v-4.5c1-0.2,1.6-1.2,1.4-2.2
				c-0.2-1-1.2-1.6-2.2-1.4s-1.6,1.2-1.4,2.2c0.2,0.7,0.7,1.2,1.4,1.4v4c-2.1-1.3-5.8-3-9.1-2.2c-2,0.5-3.6,2-4.6,4.4
				c-0.9-0.1-3.4-0.2-5.3,1.3c-1.3,1-2,2.7-2.1,4.7c0,0.2,0.2,0.4,0.4,0.4h2.2c0.2,2,2.1,3.5,4.1,3.3c1.7-0.2,3.1-1.6,3.3-3.3h4.1
				c0.2,2,2.1,3.5,4.1,3.3c1.7-0.2,3.1-1.6,3.3-3.3h1.6c0.1,0,0.2,0,0.3-0.1C30.9,24.3,32.4,23,30.4,19.6z M27.9,10
				C27.9,10,27.9,10,27.9,10c0-0.6,0.4-1,1-1c0.5,0,1,0.4,1,1c0,0.5-0.4,1-1,1C28.4,11,27.9,10.6,27.9,10z M9.8,20.2
				c0.1,0.3,0.1,0.6,0,0.9c-0.2,0.3-0.6,0.5-0.9,0.5C9,21.1,9.4,20.6,9.8,20.2z M13.8,27C13.8,27,13.8,27,13.8,27L13.8,27
				c-1.6,0-2.9-1.3-2.9-2.9s1.3-2.9,2.9-2.9s2.9,1.3,2.9,2.9C16.7,25.7,15.4,27,13.8,27z M25.3,27C25.3,27,25.3,27,25.3,27L25.3,27
				c-1.6,0-2.9-1.3-2.9-2.9s1.3-2.9,2.9-2.9s2.9,1.3,2.9,2.9C28.2,25.7,26.9,27,25.3,27z M30.4,23.7L30.4,23.7l-1.4,0
				c-0.2-2-2.1-3.5-4.1-3.3c-1.7,0.2-3.1,1.6-3.3,3.3h-4.1c-0.2-2-2.1-3.5-4.1-3.3c-1.7,0.2-3.1,1.6-3.3,3.3H8.3
				c0-0.4,0.1-0.8,0.2-1.2c1-0.1,1.7-0.4,2-1c0.3-0.6,0.3-1.2,0-1.8c1.9-1.2,4.4-0.8,4.4-0.8c0.2,0,0.4-0.1,0.5-0.3
				c0.9-2.3,2.3-3.7,4.2-4.2c4-1.1,8.9,2.3,9.8,3l0,2.4c0,0.1,0,0.2,0.1,0.2C31,22.3,30.6,23.4,30.4,23.7z"/>
		</g>
	</g>
	<g>
		<g>
			<path class="st1" d="M27.3,18c-2.2-2-4.2-2.9-6-2.9c-3.2,0-4.6,3-4.6,3.1c-0.1,0.2,0,0.5,0.2,0.6c0.1,0,0.1,0,0.2,0h10
				c0.2,0,0.4-0.2,0.4-0.4C27.5,18.2,27.4,18.1,27.3,18z M17.8,17.9c0.8-1.2,2.1-1.9,3.5-2c1.4,0,2.9,0.7,4.5,2H17.8z"/>
		</g>
	</g>
	<g>
		<g>
			<path class="st1" d="M25.3,22.8c-0.7,0-1.3,0.6-1.3,1.3s0.6,1.3,1.3,1.3s1.3-0.6,1.3-1.3C26.6,23.4,26,22.8,25.3,22.8z
				 M25.3,24.6C25.3,24.6,25.3,24.6,25.3,24.6L25.3,24.6c-0.3,0-0.5-0.2-0.5-0.5s0.2-0.5,0.5-0.5s0.5,0.2,0.5,0.5
				C25.8,24.4,25.6,24.6,25.3,24.6z"/>
		</g>
	</g>
	<g>
		<g>
			<path class="st1" d="M13.8,22.8C13.8,22.8,13.8,22.8,13.8,22.8c-0.7,0-1.3,0.6-1.3,1.3s0.6,1.3,1.3,1.3c0.7,0,1.3-0.6,1.3-1.3
				C15.1,23.4,14.5,22.8,13.8,22.8z M14.2,24.1c0,0.3-0.2,0.5-0.5,0.5v0c-0.3,0-0.5-0.2-0.5-0.5c0-0.3,0.2-0.5,0.5-0.5
				C14,23.6,14.2,23.8,14.2,24.1C14.2,24.1,14.2,24.1,14.2,24.1z"/>
		</g>
	</g>
</g>
</svg>
