<?xml version="1.0" encoding="utf-8"?>
<!-- Generator: Adobe Illustrator 24.3.0, SVG Export Plug-In . SVG Version: 6.00 Build 0)  -->
<svg version="1.1" id="Layer_1" xmlns="http://www.w3.org/2000/svg" xmlns:xlink="http://www.w3.org/1999/xlink" x="0px" y="0px"
	 viewBox="0 0 40 40" style="enable-background:new 0 0 40 40;" xml:space="preserve">
<style type="text/css">
	.st0{fill:#FCA936;}
	.st1{fill:#FFFFFF;}
</style>
<circle class="st0" cx="20.1" cy="20" r="20"/>
<path class="st1" d="M20.1,9.3C14.2,9.3,9.4,14.1,9.4,20s4.8,10.7,10.7,10.7S30.7,25.9,30.7,20C30.7,14.1,26,9.3,20.1,9.3z
	 M20.5,12.4l3.7-1.5c0.4,0.2,0.8,0.4,1.2,0.7l0,0c0.4,0.2,0.7,0.5,1.1,0.8l0,0c0.2,0.1,0.3,0.3,0.5,0.4c0,0,0,0,0.1,0.1
	c0.2,0.2,0.3,0.3,0.4,0.5c0,0,0,0,0,0c0.1,0.1,0.2,0.3,0.4,0.4c0,0,0.1,0.1,0.1,0.1c0.1,0.2,0.3,0.3,0.4,0.5l-0.7,3.1L24,18.8
	L20.5,16L20.5,12.4z M12.2,13.9c0,0,0.1-0.1,0.1-0.1c0.1-0.1,0.2-0.3,0.4-0.4c0,0,0,0,0,0c0.1-0.2,0.3-0.3,0.4-0.5c0,0,0,0,0.1-0.1
	c0.1-0.1,0.3-0.3,0.5-0.4l0,0c0.3-0.3,0.7-0.6,1.1-0.8l0,0c0.4-0.2,0.8-0.5,1.2-0.7l3.7,1.5V16l-3.5,2.8l-3.6-1.2l-0.7-3.1
	C11.9,14.3,12.1,14.1,12.2,13.9z M11.8,25.5c-0.1-0.2-0.2-0.3-0.3-0.5l0,0c-0.1-0.2-0.2-0.3-0.3-0.5l0,0c-0.2-0.4-0.3-0.7-0.5-1.1v0
	c-0.1-0.2-0.1-0.4-0.2-0.5l0-0.1c0-0.2-0.1-0.3-0.1-0.5c0,0,0,0,0-0.1c-0.1-0.4-0.1-0.8-0.2-1.2l2.2-2.6l3.6,1.2l1,4.2L15.3,26
	L11.8,25.5z M22.4,29.7c-0.2,0-0.4,0.1-0.5,0.1c0,0-0.1,0-0.1,0c-0.2,0-0.3,0.1-0.5,0.1c0,0-0.1,0-0.1,0c-0.1,0-0.3,0-0.4,0
	c0,0-0.1,0-0.1,0c-0.2,0-0.4,0-0.6,0c-0.2,0-0.4,0-0.5,0c0,0,0,0-0.1,0c-0.2,0-0.3,0-0.5,0l0,0c-0.3,0-0.7-0.1-1-0.2l-2.1-3.3
	l1.7-2.3h5l1.7,2.3L22.4,29.7z M29.8,22.1C29.8,22.1,29.8,22.2,29.8,22.1c-0.1,0.2-0.1,0.4-0.1,0.6l0,0.1c-0.1,0.2-0.1,0.4-0.2,0.5
	v0c-0.1,0.4-0.3,0.7-0.5,1.1l0,0c-0.1,0.2-0.2,0.3-0.3,0.5l0,0c-0.1,0.2-0.2,0.3-0.3,0.5L24.9,26l-1.7-2.3l1-4.2l3.6-1.2l2.2,2.6
	C29.9,21.3,29.9,21.7,29.8,22.1z"/>
</svg>
