<?xml version="1.0" encoding="utf-8"?>
<!-- Generator: Adobe Illustrator 24.3.0, SVG Export Plug-In . SVG Version: 6.00 Build 0)  -->
<svg version="1.1" id="Layer_1" xmlns="http://www.w3.org/2000/svg" xmlns:xlink="http://www.w3.org/1999/xlink" x="0px" y="0px"
	 viewBox="0 0 40 40" style="enable-background:new 0 0 40 40;" xml:space="preserve">
<style type="text/css">
	.st0{fill:#10C990;}
	.st1{fill:#FFFFFF;}
</style>
<circle class="st0" cx="20" cy="20" r="20"/>
<g>
	<path class="st1" d="M31.6,28.7c-0.2-0.2-0.5-0.5-0.8-0.8c-2-2-4.4-4.5-7.1-4.5h-0.3c0.1-0.2,0.1-0.5,0.1-0.7
		c0-0.3-0.1-0.5-0.1-0.7c1.5-0.1,2.6-0.3,3.6-0.8c1-0.5,1.8-1.2,2.2-2.2c0,0,0-0.1,0-0.1c0.6-1.4,0.4-3.1-0.5-4.4
		c-1.3-1.9-2.6-2.9-3.8-2.9h-1c-0.4,0-0.6,0.3-0.6,0.6c0,0.4,0.3,0.6,0.6,0.6h0.4v2.5h-1.6l-1.5-4.8c0,0,0,0,0-0.1
		c-0.3-0.7-1.1-1.2-2-1.2c-1.1,0-2,0.8-2,1.9c0,0,0,0,0,0.1v0.4h-0.4c-0.4,0-0.6,0.3-0.6,0.6c0,0.4,0.3,0.6,0.6,0.6h0.4v2.5h-1.6
		l-1.6-4.8c0,0,0,0,0,0c-0.3-0.8-1-1.2-1.9-1.2h-0.1c-0.6,0-1.1,0.2-1.5,0.6c-0.4,0.4-0.5,0.9-0.5,1.4v7.4c0,0,0,0,0,0s0,0,0,0v2.7
		c0,0.4,0.3,0.6,0.6,0.6H11c-0.1,0.2-0.1,0.5-0.1,0.7c0,0.3,0,0.5,0.1,0.7h-0.2c-0.4,0-0.6,0.3-0.6,0.6s0.3,0.6,0.6,0.6h1.1v4.5
		c0,0.4,0.3,0.6,0.6,0.6s0.6-0.3,0.6-0.6v-4.5h2.1v4.5c0,0.4,0.3,0.6,0.6,0.6s0.6-0.3,0.6-0.6v-4.5h2.1v4.5c0,0.4,0.3,0.6,0.6,0.6
		s0.6-0.3,0.6-0.6v-4.5h2.1v4.5c0,0.4,0.3,0.6,0.6,0.6c0.4,0,0.6-0.3,0.6-0.6v-4.5h0.5c0.5,0,1.1,0.1,1.6,0.4v4.1
		c0,0.4,0.3,0.6,0.6,0.6s0.6-0.3,0.6-0.6v-3.3c1.2,0.8,2.3,2,3.3,3c0.3,0.3,0.5,0.5,0.8,0.8c0.1,0.1,0.3,0.2,0.4,0.2
		c0.2,0,0.3-0.1,0.4-0.2C31.9,29.3,31.9,28.9,31.6,28.7L31.6,28.7z M14.7,23.4c0.1-0.2,0.1-0.5,0.1-0.7c0-0.3,0-0.5-0.1-0.7h5.1
		c-0.1,0.2-0.1,0.5-0.1,0.7c0,0.3,0,0.5,0.1,0.7H14.7z M21,22.7c0-0.4,0.3-0.7,0.7-0.7c0.4,0,0.7,0.3,0.7,0.7s-0.3,0.7-0.7,0.7
		C21.3,23.4,21,23.1,21,22.7z M22.6,20.7H11.4v-1.4h16.2C26.9,20,25.6,20.7,22.6,20.7z M11.6,10.7c0.1-0.1,0.3-0.2,0.5-0.2h0.1
		c0.3,0,0.6,0.2,0.7,0.4l1.7,5.2c0.1,0.3,0.3,0.4,0.6,0.4H18c0.4,0,0.6-0.3,0.6-0.6v-4.7c0,0,0,0,0,0c0,0,0,0,0,0
		c0-0.4,0.3-0.7,0.7-0.7c0.3,0,0.7,0.2,0.8,0.4l1.7,5.2c0.1,0.3,0.3,0.4,0.6,0.4h2.7c0.4,0,0.6-0.3,0.6-0.6V13
		c0.6,0.3,1.4,1.1,2.1,2.2c0.6,0.8,0.7,1.9,0.5,2.8H11.4v-6.8c0,0,0,0,0,0C11.4,10.9,11.5,10.8,11.6,10.7z M13.6,22.7
		c0,0.4-0.3,0.7-0.7,0.7s-0.7-0.3-0.7-0.7s0.3-0.7,0.7-0.7S13.6,22.3,13.6,22.7z"/>
</g>
</svg>
