<?xml version="1.0" encoding="utf-8"?>
<!-- Generator: Adobe Illustrator 24.3.0, SVG Export Plug-In . SVG Version: 6.00 Build 0)  -->
<svg version="1.1" id="Layer_1" xmlns="http://www.w3.org/2000/svg" xmlns:xlink="http://www.w3.org/1999/xlink" x="0px" y="0px"
	 viewBox="0 0 40 40" style="enable-background:new 0 0 40 40;" xml:space="preserve">
<style type="text/css">
	.st0{fill:#C923A7;}
	.st1{fill:#FFFFFF;}
</style>
<circle class="st0" cx="20" cy="20" r="20"/>
<g>
	<path class="st1" d="M17,25.2h-0.2v-2.1c0-0.3-0.3-0.6-0.6-0.6h-2.7c-0.3,0-0.6,0.3-0.6,0.6v0.8c0,0.4-0.3,0.7-0.6,0.7
		c-0.2,0-0.3-0.1-0.5-0.2c-0.1-0.1-0.2-0.3-0.2-0.5v-0.8c0-0.3-0.3-0.6-0.6-0.6H8.2c-0.3,0-0.6,0.3-0.6,0.6v6.3c0,1.3,1,2.3,2.3,2.3
		h6.3c0.3,0,0.6-0.3,0.6-0.6V29H17c1,0,1.9-0.8,1.9-1.9C18.9,26,18.1,25.2,17,25.2z M17,27.7h-0.8c-0.3,0-0.6,0.3-0.6,0.6v2.1H9.9
		c-0.6,0-1-0.5-1-1v-5.7h1.5v0.2c0,0.5,0.2,1,0.6,1.4c0.4,0.4,0.9,0.5,1.4,0.5c1-0.1,1.8-0.9,1.8-2v-0.1h1.5v2.1
		c0,0.3,0.3,0.6,0.6,0.6H17c0.3,0,0.6,0.3,0.6,0.6C17.6,27.4,17.4,27.7,17,27.7z"/>
	<path class="st1" d="M29.1,12.5c0-1.3-1-2.3-2.3-2.3h-6.3h-6.3c-1.3,0-2.3,1-2.3,2.3l0,6.3c0,0.3,0.3,0.6,0.6,0.6h2.1v0.2
		c0,1,0.8,1.9,1.9,1.9c1,0,1.9-0.8,1.9-1.9v-0.2h1.5l0,2.1c0,0.3,0.3,0.6,0.6,0.6h0.8c0.4,0,0.7,0.3,0.7,0.6c0,0.2-0.1,0.3-0.2,0.5
		c-0.1,0.1-0.3,0.2-0.5,0.2h-0.8c-0.3,0-0.6,0.3-0.6,0.6v2.7c0,0.3,0.3,0.6,0.6,0.6h6.3c1.3,0,2.3-1,2.3-2.3V12.5z M21.1,13.5v-2.1
		h5.7c0.6,0,1,0.5,1,1v5.7h-1.5V18c0-0.5-0.2-1-0.6-1.4c-0.4-0.4-0.9-0.5-1.4-0.5c-1,0.1-1.8,0.9-1.8,2v0.1h-1.5l0-2.1
		c0-0.3-0.3-0.6-0.6-0.6h-0.8c-0.4,0-0.7-0.3-0.7-0.6c0-0.2,0.1-0.3,0.2-0.5c0.1-0.1,0.3-0.2,0.5-0.2h0.8
		C20.8,14.2,21.1,13.9,21.1,13.5L21.1,13.5z M17.7,18.2c-0.3,0-0.6,0.3-0.6,0.6v0.8c0,0.3-0.3,0.6-0.6,0.6c-0.3,0-0.6-0.3-0.6-0.6
		v-0.8c0-0.3-0.3-0.6-0.6-0.6h-2.1l0-5.7c0-0.6,0.5-1,1-1h5.7v1.5h-0.2c-0.5,0-1,0.2-1.4,0.6c-0.4,0.4-0.5,0.9-0.5,1.4
		c0.1,1,0.9,1.8,2,1.8h0.1l0,1.5H17.7z M26.8,26.1h-5.7v-1.5h0.2c0.5,0,1-0.2,1.4-0.6c0.4-0.4,0.5-0.9,0.5-1.4c-0.1-1-0.9-1.8-2-1.8
		h-0.1l0-1.5h2.1c0.3,0,0.6-0.3,0.6-0.6V18c0-0.4,0.3-0.7,0.6-0.7c0.2,0,0.3,0.1,0.5,0.2c0.1,0.1,0.2,0.3,0.2,0.5v0.8
		c0,0.3,0.3,0.6,0.6,0.6h2.1l0,5.7C27.8,25.7,27.3,26.1,26.8,26.1L26.8,26.1z"/>
</g>
</svg>
