<?xml version="1.0" encoding="utf-8"?>
<!-- Generator: Adobe Illustrator 24.3.0, SVG Export Plug-In . SVG Version: 6.00 Build 0)  -->
<svg version="1.1" id="Layer_1" xmlns="http://www.w3.org/2000/svg" xmlns:xlink="http://www.w3.org/1999/xlink" x="0px" y="0px"
	 viewBox="0 0 40 40" style="enable-background:new 0 0 40 40;" xml:space="preserve">
<style type="text/css">
	.st0{fill:#119BF7;}
	.st1{fill:#FFFFFF;}
</style>
<g>
	<circle class="st0" cx="20" cy="20" r="20"/>
	<g>
		<path class="st1" d="M29.1,18.2c0,0,0-0.1,0-0.2c0-4.7-3.6-8.4-7.8-8.4h-1c-0.3,0-0.5,0.2-0.6,0.4l-2.5,7.4h-5.3l-0.8-2.5
			c-0.3-1-1.2-1.7-2.3-1.7c-0.3,0-0.6,0.3-0.6,0.6s0.3,0.6,0.6,0.6c0.5,0,1,0.3,1.1,0.8c1,3.3,1,3.3,2.1,6.2c0.4,1,1.5,1.7,2.9,1.7
			h2.1l-0.6,1.4c-1.8-0.3-3.4,1.1-3.4,2.8c0,1.6,1.3,2.9,2.9,2.9c1.4,0,2.5-1,2.8-2.3h2.2c0.1,0.5,0.4,1,0.8,1.4
			c1.1,1.2,2.9,1.2,4.1,0c0.5-0.6,0.8-1.3,0.8-2.1c0-1.8-1.6-3.1-3.4-2.8l-0.6-1.4H25c1.4,0,2.5-0.7,2.9-1.7
			C29.2,18.1,29.1,18.3,29.1,18.2L29.1,18.2z M20.8,10.8h0.5c3.4,0,6.3,2.9,6.5,6.6h-9.3L20.8,10.8z M16.2,29.2
			c-0.9,0-1.7-0.8-1.7-1.7c0-0.9,0.7-1.7,1.7-1.7c0.9,0,1.7,0.7,1.7,1.7C17.8,28.4,17.1,29.2,16.2,29.2z M25.6,27.5
			c0,0.9-0.8,1.7-1.7,1.7c-0.9,0-1.7-0.8-1.7-1.7c0-0.9,0.7-1.7,1.7-1.7C24.9,25.8,25.6,26.5,25.6,27.5z M22.4,25.1
			c-0.6,0.4-1,1-1.2,1.8H19c-0.2-0.7-0.6-1.4-1.2-1.8l0.7-1.9h3.1L22.4,25.1z M26.8,21C26.6,21.7,25.7,22,25,22c-0.3,0-9.5,0-9.9,0
			c-0.8,0-1.6-0.4-1.8-0.9l-0.9-2.4h15.2L26.8,21z"/>
	</g>
</g>
</svg>
