<?xml version="1.0" encoding="utf-8"?>
<!-- Generator: Adobe Illustrator 24.3.0, SVG Export Plug-In . SVG Version: 6.00 Build 0)  -->
<svg version="1.1" id="Layer_1" xmlns="http://www.w3.org/2000/svg" xmlns:xlink="http://www.w3.org/1999/xlink" x="0px" y="0px"
	 viewBox="0 0 40 40" style="enable-background:new 0 0 40 40;" xml:space="preserve">
<style type="text/css">
	.st0{fill:#FB4352;}
	.st1{fill:#FFFFFF;}
</style>
<circle class="st0" cx="20" cy="20" r="20"/>
<g>
	<path class="st1" d="M28.1,16.5c0-4.5-3.7-8.2-8.2-8.2c-4.5,0-8.2,3.7-8.2,8.2c0,3,1.6,5.5,3.9,7l1.2,4.1h-1.3v2.4
		c0,1.5,1.2,2.7,2.7,2.7h3c1.5,0,2.7-1.2,2.7-2.7v-2.4H23l1.2-4.1C26.5,22,28.1,19.4,28.1,16.5z M23,28.8v1.1c0,0.8-0.7,1.5-1.5,1.5
		h-3c-0.8,0-1.5-0.7-1.5-1.5v-1.1H23z M13,16.5c0-2.9,1.8-5.4,4.3-6.4c-1,1.5-1.6,3.8-1.6,6.4c0,2.1,0.4,3.9,1,5.3
		c0.2,0.4,0.4,0.7,0.6,1.1c-0.6-0.3-1.2-0.6-1.8-1.1C14,20.5,13,18.6,13,16.5z M26.9,16.5c0,2.1-1,4.1-2.5,5.3
		c-0.5,0.4-1.1,0.8-1.8,1.1c0.2-0.3,0.4-0.7,0.6-1.1c0.6-1.4,1-3.3,1-5.3c0-2.6-0.6-4.9-1.6-6.4C25.1,11.1,26.9,13.6,26.9,16.5z
		 M19.1,23c-0.3-0.3-0.7-0.7-1-1.2c-0.7-1.2-1.2-3.1-1.2-5.3c0-4.1,1.6-6.9,3-6.9s3,2.8,3,6.9c0,2.2-0.5,4.1-1.2,5.3
		c-0.3,0.5-0.6,0.9-1,1.2c-0.3,0.2-0.6,0.4-0.9,0.4C19.7,23.4,19.4,23.3,19.1,23z M21.7,27.6h-3.4l-1-3.4c0.9,0.3,1.8,0.5,2.7,0.5
		c1,0,1.9-0.2,2.7-0.5L21.7,27.6z"/>
</g>
</svg>
