<?xml version="1.0" encoding="utf-8"?>
<!-- Generator: Adobe Illustrator 24.3.0, SVG Export Plug-In . SVG Version: 6.00 Build 0)  -->
<svg version="1.1" id="Layer_1" xmlns="http://www.w3.org/2000/svg" xmlns:xlink="http://www.w3.org/1999/xlink" x="0px" y="0px"
	 viewBox="0 0 20 20" style="enable-background:new 0 0 20 20;" xml:space="preserve">
<style type="text/css">
	.st0{fill:#9BC91F;}
</style>
<g>
	<g>
		<path class="st0" d="M17.6,2.6V1H2.3v1.6L0.6,8.2v0.9c0,0.8,0.5,1.6,1.2,2c0,2.5,0,7.6,0,7.6h3.2v-6.4h3.2v6.4H18v-7.4
			c0.9-0.3,1.6-1.1,1.6-2.1V8.2L17.6,2.6z M2.9,10.6C2.2,10.6,1.4,10,1.4,9h2.8C4.3,10,3.5,10.6,2.9,10.6z M14.3,2.6l0.8,5.6
			c-1.6,0-1.7,0-2.8,0l-0.4-5.6H14.3z M15.1,9c0,1-0.7,1.5-1.4,1.5c-0.7,0-1.4-0.6-1.4-1.5H15.1z M6.5,10.6C5.8,10.6,5.1,10,5.1,9
			h2.8C7.9,10,7.1,10.6,6.5,10.6z M7.9,8.2c-1.1,0-1.3,0-2.8,0l0.8-5.6h2.4L7.9,8.2z M8.7,9h2.8c0,1-0.7,1.5-1.4,1.5
			C9.4,10.6,8.7,10,8.7,9z M16.3,17.1H9.9v-4.8h6.4V17.1z M17.4,10.6c-0.7,0-1.4-0.6-1.4-1.5h2.8C18.8,10,18,10.6,17.4,10.6z"/>
	</g>
</g>
</svg>
